:FULLY-SPECIFIED
:FORCE-ALL-JOINTS-BE-3DOF
:DEGREES
2854
root -6.08962 13.2678 -28.8142 1240.76 -66.7104 -159.03
lfemur -65.5782 44.9676 -5.54588
ltibia 77.1397 0 0
lfoot -4.80353 -6.17336 0
ltoes -29.2794 0 0
rfemur -31.2003 -19.2048 22.4407
rtibia 88.7764 0 0
rfoot -41.0698 -28.8382 0
rtoes -13.8277 0 0
lowerback 15.656 5.62268 1.00211
upperback -4.50853 7.99186 1.66291
thorax -13.9545 3.69734 -0.892818
lowerneck -2.53573 9.62914 2.24445
upperneck 9.15128 12.5375 2.0272
head 3.40511 6.33342 0.747647
lclavicle -4.01403e-14 -1.76066e-15 0
lhumerus 5.51423 12.2678 84.2346
lradius 93.4367 0 0
lwrist -19.1791 0 0
lhand -39.4834 388.179 0
lfingers 7.12502 0 0
lthumb -12.4697 -662.213 0
rclavicle -4.01403e-14 -1.76066e-15 0
rhumerus -59.1537 51.0411 -111.593
rradius 113.602 0 0
rwrist -83.7278 0 0
rhand 7.98382 -385.986 0
rfingers 7.12502 0 0
rthumb 33.2116 307.058 0
2855
root -6.09106 13.2651 -28.8138 1240.73 -66.718 -158.978
lfemur -65.6282 44.9665 -5.54825
ltibia 77.1731 0 0
lfoot -4.83118 -6.1942 0
ltoes -29.3746 0 0
rfemur -31.2178 -19.2013 22.4628
rtibia 88.7976 0 0
rfoot -41.0753 -28.8659 0
rtoes -13.8417 0 0
lowerback 15.664 5.6172 1.02161
upperback -4.51227 7.98887 1.6634
thorax -13.9609 3.69402 -0.903105
lowerneck -2.53907 9.62934 2.24755
upperneck 9.15552 12.537 2.03143
head 3.40714 6.33341 0.748846
lclavicle -3.64675e-14 -7.76205e-16 0
lhumerus 5.54155 12.2629 84.2226
lradius 93.4238 0 0
lwrist -19.1866 0 0
lhand -39.4738 388.148 0
lfingers 7.12502 0 0
lthumb -12.4605 -662.243 0
rclavicle -3.64675e-14 -7.76205e-16 0
rhumerus -59.1606 51.0519 -111.61
rradius 113.593 0 0
rwrist -83.7031 0 0
rhand 8.01128 -385.966 0
rfingers 7.12502 0 0
rthumb 33.2378 307.084 0
2856
root -6.09249 13.2623 -28.8135 1240.69 -66.7255 -158.927
lfemur -65.6782 44.9655 -5.55062
ltibia 77.2065 0 0
lfoot -4.85883 -6.21504 0
ltoes -29.4699 0 0
rfemur -31.2353 -19.1977 22.4848
rtibia 88.8188 0 0
rfoot -41.0807 -28.8936 0
rtoes -13.8557 0 0
lowerback 15.6719 5.61172 1.04111
upperback -4.51601 7.98589 1.6639
thorax -13.9674 3.69071 -0.913391
lowerneck -2.54242 9.62954 2.25065
upperneck 9.15975 12.5365 2.03565
head 3.40916 6.33341 0.750046
lclavicle -3.27948e-14 2.08252e-16 0
lhumerus 5.56886 12.258 84.2105
lradius 93.411 0 0
lwrist -19.194 0 0
lhand -39.4641 388.116 0
lfingers 7.12502 0 0
lthumb -12.4512 -662.274 0
rclavicle -3.27948e-14 2.08252e-16 0
rhumerus -59.1674 51.0628 -111.626
rradius 113.584 0 0
rwrist -83.6784 0 0
rhand 8.03874 -385.946 0
rfingers 7.12502 0 0
rthumb 33.2639 307.109 0
2857
root -6.09392 13.2596 -28.8131 1240.66 -66.7331 -158.876
lfemur -65.7282 44.9644 -5.55299
ltibia 77.2399 0 0
lfoot -4.88648 -6.23588 0
ltoes -29.5651 0 0
rfemur -31.2528 -19.1941 22.5069
rtibia 88.84 0 0
rfoot -41.0861 -28.9213 0
rtoes -13.8697 0 0
lowerback 15.6798 5.60624 1.06061
upperback -4.51975 7.98291 1.6644
thorax -13.9738 3.68739 -0.923678
lowerneck -2.54576 9.62974 2.25375
upperneck 9.16399 12.536 2.03988
head 3.41119 6.33341 0.751245
lclavicle -2.9122e-14 1.19271e-15 0
lhumerus 5.59618 12.2531 84.1984
lradius 93.3981 0 0
lwrist -19.2015 0 0
lhand -39.4545 388.085 0
lfingers 7.12502 0 0
lthumb -12.4419 -662.305 0
rclavicle -2.9122e-14 1.19271e-15 0
rhumerus -59.1743 51.0736 -111.643
rradius 113.575 0 0
rwrist -83.6537 0 0
rhand 8.0662 -385.926 0
rfingers 7.12502 0 0
rthumb 33.29 307.135 0
2858
root -6.09418 13.2576 -28.8107 1240.67 -66.7388 -158.87
lfemur -65.769 44.9615 -5.57729
ltibia 77.2636 0 0
lfoot -4.93914 -6.20652 0
ltoes -29.6807 0 0
rfemur -31.2868 -19.1806 22.5082
rtibia 88.8666 0 0
rfoot -41.0738 -28.9561 0
rtoes -13.8576 0 0
lowerback 15.6885 5.60597 1.07568
upperback -4.52466 7.98605 1.66373
thorax -13.9826 3.68711 -0.93467
lowerneck -2.54933 9.6269 2.25063
upperneck 9.16449 12.5319 2.04438
head 3.41148 6.33147 0.753197
lclavicle -2.55809e-14 3.12376e-15 0
lhumerus 5.5869 12.2697 84.2028
lradius 93.3874 0 0
lwrist -19.2014 0 0
lhand -39.4477 388.077 0
lfingers 7.12502 0 0
lthumb -12.4353 -662.312 0
rclavicle -2.55809e-14 3.12376e-15 0
rhumerus -59.177 51.0815 -111.649
rradius 113.566 0 0
rwrist -83.6403 0 0
rhand 8.06411 -385.923 0
rfingers 7.12502 0 0
rthumb 33.288 307.138 0
2859
root -6.09444 13.2557 -28.8083 1240.68 -66.7445 -158.864
lfemur -65.8098 44.9586 -5.6016
ltibia 77.2873 0 0
lfoot -4.99179 -6.17717 0
ltoes -29.7963 0 0
rfemur -31.3209 -19.1671 22.5095
rtibia 88.8931 0 0
rfoot -41.0615 -28.9909 0
rtoes -13.8456 0 0
lowerback 15.6972 5.6057 1.09074
upperback -4.52957 7.98919 1.66306
thorax -13.9914 3.68682 -0.945662
lowerneck -2.5529 9.62406 2.2475
upperneck 9.16498 12.5278 2.04888
head 3.41177 6.32954 0.75515
lclavicle -2.20397e-14 5.05481e-15 0
lhumerus 5.57761 12.2864 84.2071
lradius 93.3767 0 0
lwrist -19.2013 0 0
lhand -39.4408 388.07 0
lfingers 7.12502 0 0
lthumb -12.4287 -662.32 0
rclavicle -2.20397e-14 5.05481e-15 0
rhumerus -59.1796 51.0894 -111.655
rradius 113.558 0 0
rwrist -83.6268 0 0
rhand 8.06202 -385.92 0
rfingers 7.12502 0 0
rthumb 33.286 307.14 0
2860
root -6.09469 13.2537 -28.8059 1240.69 -66.7502 -158.858
lfemur -65.8505 44.9557 -5.6259
ltibia 77.3111 0 0
lfoot -5.04445 -6.14781 0
ltoes -29.9119 0 0
rfemur -31.3549 -19.1536 22.5107
rtibia 88.9197 0 0
rfoot -41.0492 -29.0257 0
rtoes -13.8335 0 0
lowerback 15.706 5.60543 1.10581
upperback -4.53448 7.99232 1.66239
thorax -14.0002 3.68654 -0.956654
lowerneck -2.55648 9.62123 2.24438
upperneck 9.16548 12.5237 2.05338
head 3.41205 6.3276 0.757102
lclavicle -1.84986e-14 6.98587e-15 0
lhumerus 5.56833 12.303 84.2115
lradius 93.3661 0 0
lwrist -19.2012 0 0
lhand -39.434 388.062 0
lfingers 7.12502 0 0
lthumb -12.4221 -662.327 0
rclavicle -1.84986e-14 6.98587e-15 0
rhumerus -59.1823 51.0973 -111.661
rradius 113.549 0 0
rwrist -83.6134 0 0
rhand 8.05993 -385.917 0
rfingers 7.12502 0 0
rthumb 33.284 307.143 0
2861
root -6.09495 13.2518 -28.8035 1240.69 -66.7559 -158.852
lfemur -65.8913 44.9528 -5.65021
ltibia 77.3348 0 0
lfoot -5.09711 -6.11846 0
ltoes -30.0276 0 0
rfemur -31.3889 -19.1401 22.512
rtibia 88.9463 0 0
rfoot -41.0369 -29.0605 0
rtoes -13.8215 0 0
lowerback 15.7147 5.60516 1.12087
upperback -4.53939 7.99546 1.66172
thorax -14.009 3.68625 -0.967646
lowerneck -2.56005 9.61839 2.24125
upperneck 9.16597 12.5196 2.05788
head 3.41234 6.32567 0.759055
lclavicle -1.49574e-14 8.91692e-15 0
lhumerus 5.55904 12.3197 84.2159
lradius 93.3554 0 0
lwrist -19.2011 0 0
lhand -39.4271 388.054 0
lfingers 7.12502 0 0
lthumb -12.4155 -662.334 0
rclavicle -1.49574e-14 8.91692e-15 0
rhumerus -59.1849 51.1052 -111.667
rradius 113.541 0 0
rwrist -83.5999 0 0
rhand 8.05784 -385.914 0
rfingers 7.12502 0 0
rthumb 33.282 307.145 0
